<?xml version="1.0" standalone="no"?>
<!DOCTYPE svg PUBLIC "-//W3C//DTD SVG 20010904//EN"
 "http://www.w3.org/TR/2001/REC-SVG-20010904/DTD/svg10.dtd">
<svg version="1.0" xmlns="http://www.w3.org/2000/svg"
 width="512.000000pt" height="512.000000pt" viewBox="0 0 512.000000 512.000000"
 preserveAspectRatio="xMidYMid meet">

<g transform="translate(0.000000,512.000000) scale(0.100000,-0.100000)"
fill="#000000" stroke="none">
<path d="M2209 5097 c-27 -15 -52 -38 -66 -63 l-23 -39 0 -1227 c0 -676 -3
-1228 -7 -1228 -5 0 -51 9 -103 20 -111 24 -328 36 -418 22 l-62 -9 -20 45
c-26 58 -97 157 -152 209 -228 218 -557 263 -843 115 -49 -26 -97 -63 -161
-127 -78 -78 -98 -104 -137 -185 -76 -158 -96 -316 -61 -473 18 -78 66 -191
108 -253 38 -56 143 -160 193 -192 34 -21 42 -31 38 -47 -34 -115 -48 -221
-49 -360 0 -168 12 -255 56 -395 63 -199 157 -356 303 -509 239 -248 534 -382
880 -398 453 -21 877 199 1138 590 l48 72 1012 5 c810 4 1017 8 1035 18 13 7
32 28 42 45 19 31 20 59 20 935 0 889 0 902 -20 922 -30 30 -83 27 -109 -6
-21 -27 -21 -32 -21 -895 l0 -869 -941 0 -941 0 5 23 c2 12 16 60 30 107 13
47 30 127 37 178 l13 92 96 0 97 0 90 -132 c74 -109 97 -135 125 -145 44 -15
597 -18 651 -3 48 14 78 52 78 99 0 28 -12 53 -50 105 l-49 69 27 14 c34 18
42 31 42 68 0 37 -8 50 -42 68 l-27 14 49 69 c38 52 50 77 50 105 0 47 -30 85
-78 99 -54 14 -607 12 -652 -3 -29 -10 -50 -35 -124 -144 l-90 -133 -97 0 -96
0 -13 93 c-7 50 -24 130 -37 177 -14 47 -27 92 -30 101 -4 13 5 18 40 23 53 8
94 44 102 90 4 17 5 109 3 205 l-3 173 -33 29 -32 29 -198 0 c-152 0 -203 -3
-217 -14 -17 -12 -24 -9 -74 32 -69 56 -140 102 -215 139 l-56 27 0 1008 0
1008 1280 0 1280 0 0 -809 c0 -803 0 -808 21 -835 26 -33 79 -36 109 -6 20 20
20 33 20 1079 0 725 -3 1069 -11 1088 -14 38 -57 83 -96 99 -27 12 -250 14
-1326 14 l-1294 0 -44 -23z m511 -292 l0 -165 -225 0 -225 0 0 158 c0 87 3
162 7 165 3 4 105 7 225 7 l218 0 0 -165z m2108 -2 l2 -163 -980 0 -980 0 0
165 0 165 978 -2 977 -3 3 -162z m-3862 -1934 c166 -30 327 -154 403 -311 212
-438 -182 -919 -653 -798 -99 25 -162 59 -241 132 -115 106 -173 227 -182 383
-10 169 43 310 162 431 137 139 320 198 511 163z m919 -439 c180 -26 335 -85
483 -183 96 -65 221 -181 285 -267 117 -156 197 -357 222 -557 l7 -53 -125 0
-125 0 -7 58 c-9 76 -58 223 -100 298 -118 211 -317 368 -550 436 -69 20 -103
23 -240 23 l-160 0 0 122 0 122 30 4 c63 8 213 6 280 -3z m1063 -402 l-3 -113
-32 -3 c-30 -3 -36 2 -69 55 -21 32 -57 84 -81 116 l-44 57 116 0 116 0 -3
-112z m-1045 -4 c262 -58 491 -279 557 -540 32 -123 40 -114 -104 -114 l-124
0 -7 41 c-21 124 -138 270 -266 333 -187 92 -403 62 -555 -76 -173 -159 -217
-385 -115 -593 67 -136 179 -227 327 -266 181 -47 389 20 506 165 48 60 94
152 103 207 l7 39 124 0 c111 0 124 -2 124 -17 -1 -47 -35 -157 -75 -240 -52
-107 -55 -133 -19 -162 53 -41 90 -24 138 62 45 83 81 185 97 280 l13 77 124
0 124 0 -7 -52 c-35 -275 -150 -504 -351 -699 -435 -421 -1123 -424 -1568 -8
-292 272 -420 676 -340 1069 9 41 19 78 23 82 4 4 38 1 76 -7 39 -8 93 -15
121 -15 l51 0 -19 -67 c-26 -89 -35 -269 -19 -369 32 -196 122 -365 267 -505
112 -106 208 -163 364 -215 79 -26 97 -28 250 -29 190 0 260 15 403 86 104 52
127 73 127 115 0 34 -37 74 -69 74 -9 0 -56 -20 -106 -45 -133 -67 -230 -88
-379 -83 -97 4 -137 10 -201 32 -201 68 -372 223 -454 411 -61 138 -77 322
-41 471 28 117 46 151 89 165 20 6 68 28 106 48 88 45 227 180 275 266 18 33
35 62 36 64 2 2 27 9 56 17 75 18 245 17 331 -2z m-80 -389 c120 -31 217 -125
252 -242 l6 -23 -186 0 c-184 0 -186 0 -210 -25 -14 -13 -25 -36 -25 -50 0
-14 11 -37 25 -50 24 -25 26 -25 210 -25 l186 0 -7 -22 c-29 -97 -103 -181
-197 -224 -51 -23 -76 -28 -142 -29 -71 0 -88 4 -147 33 -295 145 -255 573 61
658 62 17 106 17 174 -1z m2147 -132 c0 -4 -19 -36 -42 -70 l-43 -63 -238 0
c-188 0 -237 3 -231 13 4 6 25 38 47 70 l40 57 233 0 c129 0 234 -3 234 -7z
m-42 -346 c23 -34 42 -66 42 -70 0 -4 -105 -7 -234 -7 l-233 0 -40 58 c-22 31
-43 63 -47 70 -6 9 43 12 231 12 l238 0 43 -63z"/>
<path d="M805 2740 c-9 -10 -20 -39 -22 -64 -5 -42 -7 -44 -44 -50 -76 -12
-149 -106 -149 -191 0 -75 56 -158 125 -186 17 -6 79 -14 140 -18 109 -6 110
-6 120 -35 8 -24 6 -31 -14 -47 -20 -17 -41 -19 -165 -19 -136 0 -144 -1 -164
-23 -27 -29 -28 -67 -3 -98 15 -19 30 -24 83 -27 l66 -4 5 -41 c7 -49 36 -80
76 -80 46 0 71 28 71 79 0 39 3 44 28 50 76 16 128 59 156 126 39 93 -2 201
-95 248 -30 16 -59 20 -136 20 -114 0 -146 14 -141 58 5 43 38 52 190 52 136
0 137 0 157 26 24 31 26 43 10 78 -14 30 -55 46 -120 46 l-49 0 0 40 c0 27 -7
47 -20 60 -26 26 -81 26 -105 0z"/>
<path d="M834 4568 c-132 -132 -132 -133 -139 -188 -3 -30 -5 -306 -3 -613 l3
-559 37 -34 38 -34 566 0 566 0 34 34 34 34 0 294 c0 273 -1 296 -18 311 -27
24 -85 22 -108 -4 -17 -19 -19 -42 -22 -270 l-3 -249 -485 0 -484 0 0 543 0
542 88 88 87 87 397 0 397 0 3 -234 c3 -213 5 -236 22 -255 25 -27 86 -29 109
-3 15 16 17 52 17 301 l0 283 -29 29 -29 29 -473 0 -473 0 -132 -132z"/>
<path d="M1063 4368 c-48 -23 -51 -103 -4 -127 12 -7 114 -11 276 -11 162 0
264 4 276 11 48 25 44 105 -7 128 -33 15 -510 14 -541 -1z"/>
<path d="M2634 4296 c-60 -27 -64 -41 -64 -249 0 -205 6 -233 55 -255 17 -8
90 -12 215 -12 l190 0 32 29 33 29 3 185 c5 286 4 287 -265 287 -119 -1 -177
-5 -199 -14z m314 -253 l3 -113 -116 0 -115 0 0 115 0 116 113 -3 112 -3 3
-112z"/>
<path d="M3235 4225 c-14 -13 -25 -36 -25 -50 0 -14 11 -37 25 -50 l24 -25
611 0 611 0 24 25 c32 31 32 69 0 100 l-24 25 -611 0 -611 0 -24 -25z"/>
<path d="M1073 4120 c-32 -13 -56 -54 -48 -82 18 -59 14 -58 310 -58 260 0
273 1 290 20 25 28 23 76 -4 103 -21 21 -29 22 -274 24 -138 1 -262 -2 -274
-7z"/>
<path d="M3261 3979 c-52 -21 -65 -69 -30 -113 l20 -26 380 0 c366 0 380 1
399 20 25 25 26 71 1 101 l-19 24 -364 2 c-221 1 -372 -2 -387 -8z"/>
<path d="M1053 3855 c-11 -8 -24 -26 -27 -40 -7 -29 15 -79 39 -89 9 -3 132
-6 273 -6 271 1 276 1 301 48 15 28 -1 77 -30 92 -10 6 -130 10 -276 10 -212
0 -262 -3 -280 -15z"/>
<path d="M2643 3629 c-17 -5 -41 -21 -52 -35 -20 -25 -21 -40 -21 -216 0 -200
7 -235 49 -258 12 -6 100 -10 215 -10 l196 0 32 29 33 29 3 186 c5 282 6 280
-248 283 -96 1 -189 -2 -207 -8z m305 -256 l3 -113 -116 0 -115 0 0 115 0 116
113 -3 112 -3 3 -112z"/>
<path d="M1048 3590 c-24 -25 -29 -36 -24 -58 13 -55 35 -62 181 -62 112 0
136 3 154 18 33 26 31 79 -3 109 -25 21 -36 23 -152 23 l-126 0 -30 -30z"/>
<path d="M3253 3570 c-45 -18 -55 -72 -22 -114 l20 -26 619 0 619 0 20 26 c26
33 27 65 2 95 l-19 24 -609 2 c-338 1 -618 -2 -630 -7z"/>
<path d="M3231 3284 c-36 -46 -22 -93 33 -114 38 -14 693 -14 735 1 53 19 69
81 31 119 -19 19 -33 20 -399 20 l-380 0 -20 -26z"/>
<path d="M2599 2931 l-29 -29 0 -202 0 -202 29 -29 29 -29 201 0 201 0 32 29
33 29 0 201 0 200 -29 30 -30 31 -204 0 -204 0 -29 -29z m351 -231 l0 -110
-115 0 -115 0 0 110 0 110 115 0 115 0 0 -110z"/>
<path d="M3255 2898 c-49 -26 -58 -69 -24 -112 l20 -26 619 0 619 0 20 26 c12
15 21 33 21 40 0 26 -23 62 -47 73 -34 15 -1200 15 -1228 -1z"/>
<path d="M3231 2614 c-12 -15 -21 -37 -21 -50 0 -28 30 -61 62 -69 13 -3 184
-5 381 -3 l359 3 19 24 c25 30 24 76 -1 101 -19 19 -33 20 -399 20 l-380 0
-20 -26z"/>
<path d="M3261 2229 c-52 -21 -65 -69 -30 -113 l20 -26 619 0 619 0 20 26 c12
15 21 33 21 40 0 29 -25 64 -53 74 -39 13 -1182 13 -1216 -1z"/>
<path d="M3231 1944 c-26 -33 -27 -65 -2 -95 l19 -24 376 -3 376 -3 25 25 c32
32 33 75 2 104 -23 22 -27 22 -399 22 l-377 0 -20 -26z"/>
</g>
</svg>
